# xmcd
#
# Track frame offsets:
#	150
#	15254
#	30550
#	44544
#	57982
#	73343
#	88394
#	104817
#	122116
#	136190
#	154346
#	169182
#	183161
#	197853
#	213597
#	226983
#	241731
#	242653
#	243469
#	244165
#	244817
#	245482
#	246267
#	247010
#	247796
#	248553
#	249452
#	250181
#	250847
#	251522
#	252302
#	253017
#	253776
#	254508
#	255342
#	255989
#	256610
#	257386
#	258042
#	258677
#	259364
#	260044
#
# Disc length: 3473 seconds
#
# Revision: 1
# Processed by: cddbd v1.5.2PL0 Copyright (c) Steve Scherf et al.
# Submitted via: audiograbber 1.83.01
#
DISCID=620d8f2a
DTITLE=Various Artist - CDX Volume 649 (June 12, 2017)
DYEAR=2017
DGENRE=Country
TTITLE0=Josh Turner - All About You [Radio Edit]
TTITLE1=Lee Brice - Boy
TTITLE2=Jordan Davis - Singles You Up
TTITLE3=Jeff Coltrec - Delirious Trucker
TTITLE4=Domingo and Esteban Hiracheta - Free To Believe
TTITLE5=Brian Milson - I'd Have To Kiss Ya
TTITLE6=Heartland - I Loved Her First
TTITLE7=Tommy Roe - Just Your Kind Of Song
TTITLE8=Scott Brantley - My Cooler
TTITLE9=George Allen Truax - My Hometown
TTITLE10=Bailey James - Run Girl
TTITLE11=Lori Smith - Tumblin' Paradise
TTITLE12=Justin Dukes - Warning Sign
TTITLE13=Alan Turner - Windows And Mirrors
TTITLE14=Dave McElroy - Without You
TTITLE15=April Kry - While We're Young
TTITLE16=Blane Howard - Artist Liner - My New Single
TTITLE17=Blane Howard - Artist Liner - Howlin' Country
TTITLE18=Blane Howard - Artist Liner - Today's Best Country
TTITLE19=Blane Howard - Artist Liner - Kickin' Country
TTITLE20=Blane Howard - Artist Liner - Hometown Country
TTITLE21=Blane Howard - Artist Liner - Super Country
TTITLE22=Blane Howard - Artist Liner - Today's Hot Country
TTITLE23=Blane Howard - Artist Liner - The Best In Today's Country
TTITLE24=Blane Howard - Artist Liner - More of the Country You Love
TTITLE25=Brooke Woods - Artist Liner - My New Single
TTITLE26=Brooke Woods - Artist Liner - Today's Best Country
TTITLE27=Brooke Woods - Artist Liner - Kickin' Country
TTITLE28=Brooke Woods - Artist Liner - Hometown Country
TTITLE29=Brooke Woods - Artist Liner - Super Country
TTITLE30=Brooke Woods - Artist Liner - Today's Hot Country
TTITLE31=Brooke Woods - Artist Liner - The Best In Today's Country
TTITLE32=Brooke Woods - Artist Liner - More of the Country You Love
TTITLE33=Brooke Woods - Artist Liner - Howlin' Country
TTITLE34=Caleb Daugherty - Artist Liner - Today's Best Country
TTITLE35=Caleb Daugherty - Artist Liner - Kickin' Country
TTITLE36=Caleb Daugherty - Artist Liner - Howlin' Country
TTITLE37=Caleb Daugherty - Artist Liner - More of the Country You Love
TTITLE38=Caleb Daugherty - Artist Liner - Hometown Country
TTITLE39=Caleb Daugherty - Artist Liner - Super Country
TTITLE40=Caleb Daugherty - Artist Liner - Today's Hot Country
TTITLE41=Caleb Daugherty - Artist Liner - The Best In Today's Country 
EXTD=
EXTT0=
EXTT1=
EXTT2=
EXTT3=
EXTT4=
EXTT5=
EXTT6=
EXTT7=
EXTT8=
EXTT9=
EXTT10=
EXTT11=
EXTT12=
EXTT13=
EXTT14=
EXTT15=
EXTT16=
EXTT17=
EXTT18=
EXTT19=
EXTT20=
EXTT21=
EXTT22=
EXTT23=
EXTT24=
EXTT25=
EXTT26=
EXTT27=
EXTT28=
EXTT29=
EXTT30=
EXTT31=
EXTT32=
EXTT33=
EXTT34=
EXTT35=
EXTT36=
EXTT37=
EXTT38=
EXTT39=
EXTT40=
EXTT41=
PLAYORDER=
